<?xml version="1.0" encoding="utf-8"?>
<!-- Generator: Adobe Illustrator 21.1.0, SVG Export Plug-In . SVG Version: 6.00 Build 0)  -->
<svg version="1.1" id="Layer_1" xmlns="http://www.w3.org/2000/svg" xmlns:xlink="http://www.w3.org/1999/xlink" x="0px" y="0px"
	 viewBox="0 0 258.5 262.7" style="enable-background:new 0 0 258.5 262.7;" xml:space="preserve">
<style type="text/css">
	.st0{fill:#F98511;}
</style>
<g>
	<path d="M87.8,94.9c0-12.6,2.8-24.6,7.8-35.4c-1.2,0.6-2.4,1.2-3.5,1.8L2.1,113.7l42.3,12.7l43.3-25.3V94.9z"/>
	<path d="M88.7,165.4L60,182.2l41.8,17C95.2,189.2,90.6,177.7,88.7,165.4z"/>
</g>
<g>
	<path class="st0" d="M87.8,152.5v-35.7L33,148.9l55.2,12.2C87.9,158.3,87.8,155.4,87.8,152.5z"/>
	<path class="st0" d="M108.9,208.5l-52.4,29.4l39.9,16.5l41.9-24.1C126.9,225.2,116.9,217.8,108.9,208.5z"/>
</g>
</svg>
