<svg id="Layer_1" data-name="Layer 1" xmlns="http://www.w3.org/2000/svg" viewBox="0 0 258.45 262.66">
  <defs>
    <style>
      .cls-1 {
        fill: #f98511;
      }
    </style>
  </defs>
  <title>logo_design</title>
  <path d="M144.2,157.51v0a60.42,60.42,0,0,0,0-120.81v0H40.12L70.29,69h59.82c17.85,0,32.32,12.56,32.32,28s-14.47,28-32.32,28H55.62l78.89,102.47,51.57.05-73-70.16Z"/>
  <polygon class="cls-1" points="133.93 114.28 244.78 116.16 218.93 82.19 49.14 82.67 147.46 173.47 24.51 171.38 50.63 205.7 221.48 206.67 133.93 114.28"/>
  <path d="M143.91,157.57v0a60.27,60.27,0,0,0,43.56-20.23c9.51-10.68-30.86-22.15-39.29-17.09a35.66,35.66,0,0,1-18.36,5H55.33l57.48,32.37Z"/>
</svg>
